<svg width="15" height="15" viewBox="0 0 15 15" fill="none" xmlns="http://www.w3.org/2000/svg">
<path d="M7.75 7.625C7.75 7.90114 7.52614 8.125 7.25 8.125C6.97386 8.125 6.75 7.90114 6.75 7.625C6.75 7.34886 6.97386 7.125 7.25 7.125C7.52614 7.125 7.75 7.34886 7.75 7.625Z" stroke="#3629B7" stroke-opacity="0.87" stroke-width="2" stroke-linecap="round" stroke-linejoin="round"/>
<path d="M12.5 7.625C12.5 7.90114 12.2761 8.125 12 8.125C11.7239 8.125 11.5 7.90114 11.5 7.625C11.5 7.34886 11.7239 7.125 12 7.125C12.2761 7.125 12.5 7.34886 12.5 7.625Z" stroke="#3629B7" stroke-opacity="0.87" stroke-width="2" stroke-linecap="round" stroke-linejoin="round"/>
<path d="M3 7.625C3 7.90114 2.77614 8.125 2.5 8.125C2.22386 8.125 2 7.90114 2 7.625C2 7.34886 2.22386 7.125 2.5 7.125C2.77614 7.125 3 7.34886 3 7.625Z" stroke="#3629B7" stroke-opacity="0.87" stroke-width="2" stroke-linecap="round" stroke-linejoin="round"/>
</svg>
