<svg width="52" height="52" viewBox="0 0 52 52" fill="none" xmlns="http://www.w3.org/2000/svg">
<g clip-path="url(#clip0_150_430)">
<path d="M25.9999 39C22.552 39 19.2454 37.6303 16.8075 35.1923C14.3695 32.7544 12.9999 29.4478 12.9999 26C12.9999 22.5521 14.3695 19.2455 16.8075 16.8076C19.2454 14.3696 22.552 13 25.9999 13C29.4477 13 32.7543 14.3696 35.1923 16.8076C37.6302 19.2455 38.9999 22.5521 38.9999 26C38.9999 29.4478 37.6302 32.7544 35.1923 35.1923C32.7543 37.6303 29.4477 39 25.9999 39ZM23.8332 2.16663H28.1665V8.66662H23.8332V2.16663ZM23.8332 43.3333H28.1665V49.8333H23.8332V43.3333ZM7.6157 10.6795L10.6794 7.61579L15.2749 12.2113L12.2112 15.275L7.6157 10.6816V10.6795ZM36.7249 39.7886L39.7885 36.725L44.384 41.3205L41.3204 44.3841L36.7249 39.7886ZM41.3204 7.61362L44.384 10.6795L39.7885 15.275L36.7249 12.2113L41.3204 7.61579V7.61362ZM12.2112 36.725L15.2749 39.7886L10.6794 44.3841L7.6157 41.3205L12.2112 36.725V36.725ZM49.8332 23.8333V28.1666H43.3332V23.8333H49.8332ZM8.66653 23.8333V28.1666H2.16653V23.8333H8.66653Z" fill="url(#paint0_linear_150_430)"/>
</g>
<defs>
<linearGradient id="paint0_linear_150_430" x1="25.9999" y1="2.16663" x2="25.9999" y2="49.8333" gradientUnits="userSpaceOnUse">
<stop stop-color="#FFDE67"/>
<stop offset="1" stop-color="#EB6402"/>
</linearGradient>
<clipPath id="clip0_150_430">
<rect width="52" height="52" fill="white"/>
</clipPath>
</defs>
</svg>
